# xmcd
#
# Track frame offsets: 
#        150
#        13785
#        29653
#        46865
#        67008
#        91294
#        107773
#        128565
#        141340
#        161085
#        179040
#        201860
#        213012
#        236969
#        261462
#        277247
#
# Disc length: 3990 seconds
#
# Revision: 1
# Processed by: cddbd v1.5.2PL0 Copyright (c) Steve Scherf et al.
# Submitted via: ExactAudioCopy v0.95a4
#
DISCID=fb0f9410
DTITLE=Blackie And The Rodeo Kings - Kings And Queens
DYEAR=2012
DGENRE=Folk
TTITLE0=If I Can't Have You (with Lucinda Williams)
TTITLE1=Another Free Woman Gets To Walk Away (with Sara Watkins)
TTITLE2=Got You Covered (with Rosanne Cash)
TTITLE3=I'm Still Lovin' You (with Amy Helm)
TTITLE4=Golden Sorrows (with Cassandra Wilson)
TTITLE5=Shelter Me (with Patti Scialfa)
TTITLE6=My Town Has Moved Away (with Pam Tillis)
TTITLE7=How Come You Treat Me So Bad (with Janiva Magness)
TTITLE8=Step Away (with Emmylou Harris)
TTITLE9=Heart A Mine (with Mary Margaret O'Hara)
TTITLE10=Brave (with Holly Cole)
TTITLE11=Made Of Love (with Exene Cervenka)
TTITLE12=Love Lay Me Down (with Sam Phillips)
TTITLE13=Black Sheep (with Serena Ryder)
TTITLE14=Let's Set the World On Fire (with Patty Loveless)
TTITLE15=Big East West (with Patty Loveless)
EXTD=Year: 2012\n\n\n\n\n\n                                           
EXTD=http://blackieandtherodeokings.com
EXTT0=
EXTT1=
EXTT2=
EXTT3=
EXTT4=
EXTT5=
EXTT6=
EXTT7=
EXTT8=
EXTT9=
EXTT10=
EXTT11=
EXTT12=
EXTT13=
EXTT14=
EXTT15=
PLAYORDER=
